<svg xmlns="http://www.w3.org/2000/svg" viewBox="0 0 302 302.35"><defs><style>.cls-1{fill:#fff;}.cls-1,.cls-2{stroke:#231f20;stroke-miterlimit:10;}.cls-2{fill:none;}</style></defs><g id="Layer_1" data-name="Layer 1"><rect class="cls-1" x="0.5" y="1.5" width="100" height="100"/><rect class="cls-1" x="100.5" y="201.5" width="100" height="100"/><rect class="cls-1" x="200.5" y="201.5" width="101" height="100"/><rect class="cls-1" x="0.5" y="201.5" width="100" height="100"/><rect class="cls-1" x="200.5" y="101.5" width="101" height="100"/><rect class="cls-1" x="100.5" y="101.5" width="100" height="100"/><rect class="cls-1" x="0.5" y="101.5" width="100" height="100"/><rect class="cls-1" x="100.5" y="1.5" width="100" height="100"/><rect class="cls-1" x="201" y="1.5" width="100" height="100"/><path class="cls-1" d="M213,262.5" transform="translate(-112.5 -161)"/><line class="cls-2" x1="0.5" y1="1.5" x2="100.5" y2="101.5"/><line class="cls-2" x1="100.5" y1="1.5" x2="0.5" y2="101.5"/><line class="cls-2" x1="100.5" y1="1.5" x2="200.5" y2="101.5"/><line class="cls-2" x1="200.5" y1="1.5" x2="100.5" y2="101.5"/><line class="cls-2" x1="201" y1="1.5" x2="301" y2="101.5"/><line class="cls-2" x1="301" y1="1.5" x2="201" y2="101.5"/></g><g id="Layer_2" data-name="Layer 2"><line class="cls-2" x1="0.5" y1="101.5" x2="100.5" y2="201.5"/><line class="cls-2" x1="0.5" y1="201.5" x2="100.5" y2="101.5"/><line class="cls-2" x1="100.5" y1="201.5" x2="201" y2="101.5"/><line class="cls-2" x1="200.5" y1="201.5" x2="100.5" y2="101.5"/><line class="cls-2" x1="200.75" y1="101.75" x2="300.75" y2="201.75"/><line class="cls-2" x1="200.75" y1="201.75" x2="300.75" y2="101.75"/><line class="cls-2" x1="0.5" y1="202" x2="100.5" y2="302"/><line class="cls-2" x1="0.5" y1="302" x2="100.5" y2="202"/><line class="cls-2" x1="100.75" y1="202" x2="200.75" y2="302"/><line class="cls-2" x1="100.75" y1="302" x2="200.75" y2="202"/><line class="cls-2" x1="200.5" y1="202" x2="300.5" y2="302"/><line class="cls-2" x1="200.5" y1="302" x2="300.5" y2="202"/></g><g id="Layer_3" data-name="Layer 3"><circle class="cls-2" cx="52.12" cy="53.12" r="48.38"/><circle class="cls-2" cx="152.62" cy="51.5" r="48.38"/><circle class="cls-2" cx="253.13" cy="48.88" r="48.38"/><circle class="cls-2" cx="55.87" cy="151.75" r="48.38"/><circle class="cls-2" cx="152.62" cy="149.87" r="48.38"/><circle class="cls-2" cx="253.13" cy="154.19" r="48.38"/><circle class="cls-2" cx="50.5" cy="251.25" r="48.38"/><circle class="cls-2" cx="151.5" cy="251.25" r="48.38"/><circle class="cls-2" cx="253.13" cy="252" r="48.38"/></g></svg>