<svg id="Layer_1" data-name="Layer 1" xmlns="http://www.w3.org/2000/svg" viewBox="0 0 302 301"><defs><style>.cls-1{fill:#fff;}.cls-1,.cls-2{stroke:#231f20;stroke-miterlimit:10;}.cls-2{fill:none;}</style></defs><rect class="cls-1" x="0.5" y="0.5" width="100" height="100"/><rect class="cls-1" x="100.5" y="200.5" width="100" height="100"/><rect class="cls-1" x="200.5" y="200.5" width="101" height="100"/><rect class="cls-1" x="0.5" y="200.5" width="100" height="100"/><rect class="cls-1" x="200.5" y="100.5" width="101" height="100"/><rect class="cls-1" x="100.5" y="100.5" width="100" height="100"/><rect class="cls-1" x="0.5" y="100.5" width="100" height="100"/><rect class="cls-1" x="100.5" y="0.5" width="100" height="100"/><rect class="cls-1" x="201" y="0.5" width="100" height="100"/><path class="cls-1" d="M213,262.5" transform="translate(-112.5 -162)"/><line class="cls-2" x1="0.5" y1="0.5" x2="100.5" y2="100.5"/><line class="cls-2" x1="100.5" y1="0.5" x2="0.5" y2="100.5"/><line class="cls-2" x1="100.5" y1="0.5" x2="200.5" y2="100.5"/><line class="cls-2" x1="200.5" y1="0.5" x2="100.5" y2="100.5"/><line class="cls-2" x1="201" y1="0.5" x2="301" y2="100.5"/><line class="cls-2" x1="301" y1="0.5" x2="201" y2="100.5"/></svg>