<?xml version="1.0" encoding="utf-8"?>
<!-- Generator: Adobe Illustrator 24.3.0, SVG Export Plug-In . SVG Version: 6.00 Build 0)  -->
<svg version="1.1" id="Layer_1" xmlns="http://www.w3.org/2000/svg" xmlns:xlink="http://www.w3.org/1999/xlink" x="0px" y="0px"
	 viewBox="0 0 1920 1080" style="enable-background:new 0 0 1920 1080;" xml:space="preserve">
<style type="text/css">
	.st0{fill:#1F77FF;}
	.st1{fill:#FFFFFF;}
</style>
<g>
	<rect x="302.5" y="169.5" class="st0" width="1266" height="831"/>
	<path d="M1568,170v830H303V170H1568 M1569,169H302v832h1267V169L1569,169z"/>
</g>
<g>
	<circle class="st1" cx="401.5" cy="264.5" r="73"/>
	<path d="M401.5,192c39.98,0,72.5,32.52,72.5,72.5S441.48,337,401.5,337S329,304.48,329,264.5S361.52,192,401.5,192 M401.5,191
		c-40.59,0-73.5,32.91-73.5,73.5s32.91,73.5,73.5,73.5s73.5-32.91,73.5-73.5S442.09,191,401.5,191L401.5,191z"/>
</g>
<g>
	<circle class="st1" cx="401.5" cy="750.5" r="73"/>
	<path d="M401.5,678c39.98,0,72.5,32.52,72.5,72.5S441.48,823,401.5,823c-39.98,0-72.5-32.52-72.5-72.5S361.52,678,401.5,678
		 M401.5,677c-40.59,0-73.5,32.91-73.5,73.5c0,40.59,32.91,73.5,73.5,73.5c40.59,0,73.5-32.91,73.5-73.5
		C475,709.91,442.09,677,401.5,677L401.5,677z"/>
</g>
<g>
	<circle class="st1" cx="401.5" cy="588.5" r="73"/>
	<path d="M401.5,516c39.98,0,72.5,32.52,72.5,72.5S441.48,661,401.5,661c-39.98,0-72.5-32.52-72.5-72.5S361.52,516,401.5,516
		 M401.5,515c-40.59,0-73.5,32.91-73.5,73.5c0,40.59,32.91,73.5,73.5,73.5c40.59,0,73.5-32.91,73.5-73.5
		C475,547.91,442.09,515,401.5,515L401.5,515z"/>
</g>
<g>
	<circle class="st1" cx="401.5" cy="426.5" r="73"/>
	<path d="M401.5,354c39.98,0,72.5,32.52,72.5,72.5S441.48,499,401.5,499c-39.98,0-72.5-32.52-72.5-72.5S361.52,354,401.5,354
		 M401.5,353c-40.59,0-73.5,32.91-73.5,73.5c0,40.59,32.91,73.5,73.5,73.5c40.59,0,73.5-32.91,73.5-73.5
		C475,385.91,442.09,353,401.5,353L401.5,353z"/>
</g>
<g>
	<circle class="st1" cx="401.5" cy="912.5" r="73"/>
	<path d="M401.5,840c39.98,0,72.5,32.52,72.5,72.5S441.48,985,401.5,985c-39.98,0-72.5-32.52-72.5-72.5S361.52,840,401.5,840
		 M401.5,839c-40.59,0-73.5,32.91-73.5,73.5c0,40.59,32.91,73.5,73.5,73.5c40.59,0,73.5-32.91,73.5-73.5
		C475,871.91,442.09,839,401.5,839L401.5,839z"/>
</g>
<g>
	<circle class="st1" cx="583.5" cy="261.5" r="73"/>
	<path d="M583.5,189c39.98,0,72.5,32.52,72.5,72.5S623.48,334,583.5,334c-39.98,0-72.5-32.52-72.5-72.5S543.52,189,583.5,189
		 M583.5,188c-40.59,0-73.5,32.91-73.5,73.5s32.91,73.5,73.5,73.5c40.59,0,73.5-32.91,73.5-73.5S624.09,188,583.5,188L583.5,188z"/>
</g>
<g>
	<circle class="st1" cx="583.5" cy="747.5" r="73"/>
	<path d="M583.5,675c39.98,0,72.5,32.52,72.5,72.5S623.48,820,583.5,820c-39.98,0-72.5-32.52-72.5-72.5S543.52,675,583.5,675
		 M583.5,674c-40.59,0-73.5,32.91-73.5,73.5c0,40.59,32.91,73.5,73.5,73.5c40.59,0,73.5-32.91,73.5-73.5
		C657,706.91,624.09,674,583.5,674L583.5,674z"/>
</g>
<g>
	<circle class="st1" cx="583.5" cy="585.5" r="73"/>
	<path d="M583.5,513c39.98,0,72.5,32.52,72.5,72.5S623.48,658,583.5,658c-39.98,0-72.5-32.52-72.5-72.5S543.52,513,583.5,513
		 M583.5,512c-40.59,0-73.5,32.91-73.5,73.5c0,40.59,32.91,73.5,73.5,73.5c40.59,0,73.5-32.91,73.5-73.5
		C657,544.91,624.09,512,583.5,512L583.5,512z"/>
</g>
<g>
	<circle class="st1" cx="583.5" cy="423.5" r="73"/>
	<path d="M583.5,351c39.98,0,72.5,32.52,72.5,72.5S623.48,496,583.5,496c-39.98,0-72.5-32.52-72.5-72.5S543.52,351,583.5,351
		 M583.5,350c-40.59,0-73.5,32.91-73.5,73.5s32.91,73.5,73.5,73.5c40.59,0,73.5-32.91,73.5-73.5S624.09,350,583.5,350L583.5,350z"/>
</g>
<g>
	<circle class="st1" cx="583.5" cy="909.5" r="73"/>
	<path d="M583.5,837c39.98,0,72.5,32.52,72.5,72.5S623.48,982,583.5,982c-39.98,0-72.5-32.52-72.5-72.5S543.52,837,583.5,837
		 M583.5,836c-40.59,0-73.5,32.91-73.5,73.5c0,40.59,32.91,73.5,73.5,73.5c40.59,0,73.5-32.91,73.5-73.5
		C657,868.91,624.09,836,583.5,836L583.5,836z"/>
</g>
<g>
	<circle class="st1" cx="763.5" cy="264.5" r="73"/>
	<path d="M763.5,192c39.98,0,72.5,32.52,72.5,72.5S803.48,337,763.5,337c-39.98,0-72.5-32.52-72.5-72.5S723.52,192,763.5,192
		 M763.5,191c-40.59,0-73.5,32.91-73.5,73.5s32.91,73.5,73.5,73.5c40.59,0,73.5-32.91,73.5-73.5S804.09,191,763.5,191L763.5,191z"/>
</g>
<g>
	<circle class="st1" cx="763.5" cy="750.5" r="73"/>
	<path d="M763.5,678c39.98,0,72.5,32.52,72.5,72.5S803.48,823,763.5,823c-39.98,0-72.5-32.52-72.5-72.5S723.52,678,763.5,678
		 M763.5,677c-40.59,0-73.5,32.91-73.5,73.5c0,40.59,32.91,73.5,73.5,73.5c40.59,0,73.5-32.91,73.5-73.5
		C837,709.91,804.09,677,763.5,677L763.5,677z"/>
</g>
<g>
	<circle class="st1" cx="763.5" cy="588.5" r="73"/>
	<path d="M763.5,516c39.98,0,72.5,32.52,72.5,72.5S803.48,661,763.5,661c-39.98,0-72.5-32.52-72.5-72.5S723.52,516,763.5,516
		 M763.5,515c-40.59,0-73.5,32.91-73.5,73.5c0,40.59,32.91,73.5,73.5,73.5c40.59,0,73.5-32.91,73.5-73.5
		C837,547.91,804.09,515,763.5,515L763.5,515z"/>
</g>
<g>
	<circle class="st1" cx="763.5" cy="426.5" r="73"/>
	<path d="M763.5,354c39.98,0,72.5,32.52,72.5,72.5S803.48,499,763.5,499c-39.98,0-72.5-32.52-72.5-72.5S723.52,354,763.5,354
		 M763.5,353c-40.59,0-73.5,32.91-73.5,73.5s32.91,73.5,73.5,73.5c40.59,0,73.5-32.91,73.5-73.5S804.09,353,763.5,353L763.5,353z"/>
</g>
<g>
	<circle class="st1" cx="763.5" cy="912.5" r="73"/>
	<path d="M763.5,840c39.98,0,72.5,32.52,72.5,72.5S803.48,985,763.5,985c-39.98,0-72.5-32.52-72.5-72.5S723.52,840,763.5,840
		 M763.5,839c-40.59,0-73.5,32.91-73.5,73.5c0,40.59,32.91,73.5,73.5,73.5c40.59,0,73.5-32.91,73.5-73.5
		C837,871.91,804.09,839,763.5,839L763.5,839z"/>
</g>
<g>
	<circle class="st1" cx="930.5" cy="264.5" r="73"/>
	<path d="M930.5,192c39.98,0,72.5,32.52,72.5,72.5S970.48,337,930.5,337c-39.98,0-72.5-32.52-72.5-72.5S890.52,192,930.5,192
		 M930.5,191c-40.59,0-73.5,32.91-73.5,73.5s32.91,73.5,73.5,73.5c40.59,0,73.5-32.91,73.5-73.5S971.09,191,930.5,191L930.5,191z"/>
</g>
<g>
	<circle class="st1" cx="930.5" cy="750.5" r="73"/>
	<path d="M930.5,678c39.98,0,72.5,32.52,72.5,72.5S970.48,823,930.5,823c-39.98,0-72.5-32.52-72.5-72.5S890.52,678,930.5,678
		 M930.5,677c-40.59,0-73.5,32.91-73.5,73.5c0,40.59,32.91,73.5,73.5,73.5c40.59,0,73.5-32.91,73.5-73.5
		C1004,709.91,971.09,677,930.5,677L930.5,677z"/>
</g>
<g>
	<circle class="st1" cx="930.5" cy="588.5" r="73"/>
	<path d="M930.5,516c39.98,0,72.5,32.52,72.5,72.5S970.48,661,930.5,661c-39.98,0-72.5-32.52-72.5-72.5S890.52,516,930.5,516
		 M930.5,515c-40.59,0-73.5,32.91-73.5,73.5c0,40.59,32.91,73.5,73.5,73.5c40.59,0,73.5-32.91,73.5-73.5
		C1004,547.91,971.09,515,930.5,515L930.5,515z"/>
</g>
<g>
	<circle class="st1" cx="930.5" cy="426.5" r="73"/>
	<path d="M930.5,354c39.98,0,72.5,32.52,72.5,72.5S970.48,499,930.5,499c-39.98,0-72.5-32.52-72.5-72.5S890.52,354,930.5,354
		 M930.5,353c-40.59,0-73.5,32.91-73.5,73.5s32.91,73.5,73.5,73.5c40.59,0,73.5-32.91,73.5-73.5S971.09,353,930.5,353L930.5,353z"/>
</g>
<g>
	<circle class="st1" cx="930.5" cy="912.5" r="73"/>
	<path d="M930.5,840c39.98,0,72.5,32.52,72.5,72.5S970.48,985,930.5,985c-39.98,0-72.5-32.52-72.5-72.5S890.52,840,930.5,840
		 M930.5,839c-40.59,0-73.5,32.91-73.5,73.5c0,40.59,32.91,73.5,73.5,73.5c40.59,0,73.5-32.91,73.5-73.5
		C1004,871.91,971.09,839,930.5,839L930.5,839z"/>
</g>
<g>
	<circle class="st1" cx="1122.5" cy="264.5" r="73"/>
	<path d="M1122.5,192c39.98,0,72.5,32.52,72.5,72.5s-32.52,72.5-72.5,72.5s-72.5-32.52-72.5-72.5S1082.52,192,1122.5,192
		 M1122.5,191c-40.59,0-73.5,32.91-73.5,73.5s32.91,73.5,73.5,73.5s73.5-32.91,73.5-73.5S1163.09,191,1122.5,191L1122.5,191z"/>
</g>
<g>
	<circle class="st1" cx="1122.5" cy="750.5" r="73"/>
	<path d="M1122.5,678c39.98,0,72.5,32.52,72.5,72.5s-32.52,72.5-72.5,72.5s-72.5-32.52-72.5-72.5S1082.52,678,1122.5,678
		 M1122.5,677c-40.59,0-73.5,32.91-73.5,73.5c0,40.59,32.91,73.5,73.5,73.5s73.5-32.91,73.5-73.5
		C1196,709.91,1163.09,677,1122.5,677L1122.5,677z"/>
</g>
<g>
	<circle class="st1" cx="1122.5" cy="588.5" r="73"/>
	<path d="M1122.5,516c39.98,0,72.5,32.52,72.5,72.5s-32.52,72.5-72.5,72.5s-72.5-32.52-72.5-72.5S1082.52,516,1122.5,516
		 M1122.5,515c-40.59,0-73.5,32.91-73.5,73.5c0,40.59,32.91,73.5,73.5,73.5s73.5-32.91,73.5-73.5
		C1196,547.91,1163.09,515,1122.5,515L1122.5,515z"/>
</g>
<g>
	<circle class="st1" cx="1122.5" cy="426.5" r="73"/>
	<path d="M1122.5,354c39.98,0,72.5,32.52,72.5,72.5s-32.52,72.5-72.5,72.5s-72.5-32.52-72.5-72.5S1082.52,354,1122.5,354
		 M1122.5,353c-40.59,0-73.5,32.91-73.5,73.5s32.91,73.5,73.5,73.5s73.5-32.91,73.5-73.5S1163.09,353,1122.5,353L1122.5,353z"/>
</g>
<g>
	<circle class="st1" cx="1122.5" cy="912.5" r="73"/>
	<path d="M1122.5,840c39.98,0,72.5,32.52,72.5,72.5s-32.52,72.5-72.5,72.5s-72.5-32.52-72.5-72.5S1082.52,840,1122.5,840
		 M1122.5,839c-40.59,0-73.5,32.91-73.5,73.5c0,40.59,32.91,73.5,73.5,73.5s73.5-32.91,73.5-73.5
		C1196,871.91,1163.09,839,1122.5,839L1122.5,839z"/>
</g>
<g>
	<circle class="st1" cx="1296.5" cy="261.5" r="73"/>
	<path d="M1296.5,189c39.98,0,72.5,32.52,72.5,72.5s-32.52,72.5-72.5,72.5s-72.5-32.52-72.5-72.5S1256.52,189,1296.5,189
		 M1296.5,188c-40.59,0-73.5,32.91-73.5,73.5s32.91,73.5,73.5,73.5s73.5-32.91,73.5-73.5S1337.09,188,1296.5,188L1296.5,188z"/>
</g>
<g>
	<circle class="st1" cx="1296.5" cy="747.5" r="73"/>
	<path d="M1296.5,675c39.98,0,72.5,32.52,72.5,72.5s-32.52,72.5-72.5,72.5s-72.5-32.52-72.5-72.5S1256.52,675,1296.5,675
		 M1296.5,674c-40.59,0-73.5,32.91-73.5,73.5c0,40.59,32.91,73.5,73.5,73.5s73.5-32.91,73.5-73.5
		C1370,706.91,1337.09,674,1296.5,674L1296.5,674z"/>
</g>
<g>
	<circle class="st1" cx="1296.5" cy="585.5" r="73"/>
	<path d="M1296.5,513c39.98,0,72.5,32.52,72.5,72.5s-32.52,72.5-72.5,72.5s-72.5-32.52-72.5-72.5S1256.52,513,1296.5,513
		 M1296.5,512c-40.59,0-73.5,32.91-73.5,73.5c0,40.59,32.91,73.5,73.5,73.5s73.5-32.91,73.5-73.5
		C1370,544.91,1337.09,512,1296.5,512L1296.5,512z"/>
</g>
<g>
	<circle class="st1" cx="1296.5" cy="423.5" r="73"/>
	<path d="M1296.5,351c39.98,0,72.5,32.52,72.5,72.5s-32.52,72.5-72.5,72.5s-72.5-32.52-72.5-72.5S1256.52,351,1296.5,351
		 M1296.5,350c-40.59,0-73.5,32.91-73.5,73.5s32.91,73.5,73.5,73.5s73.5-32.91,73.5-73.5S1337.09,350,1296.5,350L1296.5,350z"/>
</g>
<g>
	<circle class="st1" cx="1296.5" cy="909.5" r="73"/>
	<path d="M1296.5,837c39.98,0,72.5,32.52,72.5,72.5s-32.52,72.5-72.5,72.5s-72.5-32.52-72.5-72.5S1256.52,837,1296.5,837
		 M1296.5,836c-40.59,0-73.5,32.91-73.5,73.5c0,40.59,32.91,73.5,73.5,73.5s73.5-32.91,73.5-73.5
		C1370,868.91,1337.09,836,1296.5,836L1296.5,836z"/>
</g>
<g>
	<circle class="st1" cx="1469.5" cy="264.5" r="73"/>
	<path d="M1469.5,192c39.98,0,72.5,32.52,72.5,72.5s-32.52,72.5-72.5,72.5s-72.5-32.52-72.5-72.5S1429.52,192,1469.5,192
		 M1469.5,191c-40.59,0-73.5,32.91-73.5,73.5s32.91,73.5,73.5,73.5s73.5-32.91,73.5-73.5S1510.09,191,1469.5,191L1469.5,191z"/>
</g>
<g>
	<circle class="st1" cx="1469.5" cy="750.5" r="73"/>
	<path d="M1469.5,678c39.98,0,72.5,32.52,72.5,72.5s-32.52,72.5-72.5,72.5s-72.5-32.52-72.5-72.5S1429.52,678,1469.5,678
		 M1469.5,677c-40.59,0-73.5,32.91-73.5,73.5c0,40.59,32.91,73.5,73.5,73.5s73.5-32.91,73.5-73.5
		C1543,709.91,1510.09,677,1469.5,677L1469.5,677z"/>
</g>
<g>
	<circle class="st1" cx="1469.5" cy="588.5" r="73"/>
	<path d="M1469.5,516c39.98,0,72.5,32.52,72.5,72.5s-32.52,72.5-72.5,72.5s-72.5-32.52-72.5-72.5S1429.52,516,1469.5,516
		 M1469.5,515c-40.59,0-73.5,32.91-73.5,73.5c0,40.59,32.91,73.5,73.5,73.5s73.5-32.91,73.5-73.5
		C1543,547.91,1510.09,515,1469.5,515L1469.5,515z"/>
</g>
<g>
	<circle class="st1" cx="1469.5" cy="426.5" r="73"/>
	<path d="M1469.5,354c39.98,0,72.5,32.52,72.5,72.5s-32.52,72.5-72.5,72.5s-72.5-32.52-72.5-72.5S1429.52,354,1469.5,354
		 M1469.5,353c-40.59,0-73.5,32.91-73.5,73.5s32.91,73.5,73.5,73.5s73.5-32.91,73.5-73.5S1510.09,353,1469.5,353L1469.5,353z"/>
</g>
<g>
	<circle class="st1" cx="1469.5" cy="912.5" r="73"/>
	<path d="M1469.5,840c39.98,0,72.5,32.52,72.5,72.5s-32.52,72.5-72.5,72.5s-72.5-32.52-72.5-72.5S1429.52,840,1469.5,840
		 M1469.5,839c-40.59,0-73.5,32.91-73.5,73.5c0,40.59,32.91,73.5,73.5,73.5s73.5-32.91,73.5-73.5
		C1543,871.91,1510.09,839,1469.5,839L1469.5,839z"/>
</g>
</svg>
